<svg width="80" height="80" viewBox="0 0 80 80" fill="none" xmlns="http://www.w3.org/2000/svg">
<g clip-path="url(#clip0_1344_37)">
<path d="M75.0862 29.1381C73.5474 38.7846 68.637 47.5721 61.2282 53.9377C53.8195 60.3032 44.3932 63.8339 34.6261 63.9015C32.6477 63.9776 30.6667 63.8572 28.7121 63.5426C24.6243 62.848 20.8982 60.7729 18.1552 57.6634C15.4122 54.5539 13.8182 50.598 13.639 46.4555C13.6785 41.835 15.5331 37.4154 18.8025 34.1503C22.0718 30.8854 26.4939 29.0372 31.1141 29.0045C35.7343 28.9719 40.1821 30.7575 43.4971 33.9758C46.8124 37.1943 48.7293 41.5872 48.8342 46.2066C48.9081 49.1242 47.6443 51.6833 45.0469 51.7573C42.2718 51.7573 40.9709 49.777 40.9709 47.1083V39.6925C40.9719 38.4933 40.4987 37.3424 39.6545 36.4907C38.8103 35.639 37.6635 35.1557 36.4644 35.1461H30.2483C28.4402 35.1336 26.6578 35.5745 25.0641 36.4285C23.4703 37.2825 22.116 38.5223 21.125 40.0347C20.1338 41.547 19.5374 43.2835 19.3902 45.0857C19.243 46.8878 19.5498 48.6981 20.2825 50.3512C21.0151 52.0043 22.1503 53.4474 23.5844 54.5487C25.0184 55.6501 26.7056 56.3745 28.4917 56.6558C30.2778 56.9369 32.1059 56.7659 33.8088 56.1584C35.5118 55.5509 37.0354 54.5263 38.2403 53.1783L38.4577 52.8541L38.6753 53.214C39.4229 54.2297 40.41 55.045 41.5487 55.5873C42.6874 56.1295 43.9424 56.3821 45.2022 56.3223C47.4478 56.1591 49.5406 55.1246 51.0338 53.4395C52.527 51.7544 53.3023 49.5524 53.1942 47.3035C53.2161 45.3736 52.9998 43.4485 52.5503 41.5716C51.3975 36.2696 48.323 31.5818 43.9193 28.4126C39.5157 25.2434 34.0947 23.8166 28.7015 24.4073C23.3083 24.9981 18.3247 27.5646 14.7116 31.6119C11.0982 35.6596 9.11101 40.9016 9.13297 46.3274C9.20231 52.0808 11.4989 57.5834 15.5403 61.679C19.5812 65.7744 25.0525 68.1439 30.8041 68.2894C30.8041 68.2894 32.432 68.4375 34.2672 68.3952C43.1882 68.3388 51.9078 65.7371 59.4012 60.896C59.5078 60.8219 59.6143 60.97 59.5434 61.0779C55.8953 65.008 51.4342 68.0955 46.4709 70.1254C41.5076 72.1553 36.1614 73.0787 30.8048 72.8313C27.3029 72.8949 23.8244 72.2484 20.5792 70.9308C17.334 69.6133 14.3894 67.6519 11.923 65.1651C9.45635 62.6782 7.51897 59.7175 6.2277 56.4615C4.93643 53.2055 4.31802 49.7217 4.40978 46.2202C4.41147 42.0456 5.38674 37.9291 7.25811 34.1975C9.12948 30.4659 11.8454 27.2223 15.19 24.7242C19.6847 21.4141 25.1164 19.6209 30.6984 19.6043H39.0412C42.3002 19.6019 45.5229 18.9208 48.5042 17.6044C51.4854 16.288 54.1599 14.3652 56.3572 11.9584C56.4036 11.9069 56.4653 11.8717 56.5333 11.8579C56.6011 11.8432 56.6718 11.8502 56.7355 11.878C56.7991 11.9057 56.8524 11.9528 56.8878 12.0125C56.9234 12.0724 56.9395 12.1419 56.9337 12.2117C56.5801 15.9616 55.3318 19.5718 53.2936 22.7393C53.2634 22.7943 53.2498 22.8569 53.2546 22.9194C53.2593 22.982 53.2822 23.0419 53.3204 23.0917C53.3584 23.1414 53.41 23.179 53.4689 23.2C53.5279 23.221 53.5917 23.2244 53.6525 23.2099C57.5037 22.3399 61.0969 20.578 64.1429 18.0661C67.189 15.5541 69.6028 12.3622 71.1903 8.74718C71.2306 8.68258 71.2861 8.62894 71.3523 8.59092C71.4189 8.55341 71.4939 8.53369 71.5703 8.53369C71.6467 8.53369 71.7217 8.55341 71.7882 8.59092C71.8545 8.62871 71.9102 8.68235 71.9501 8.74718C75.2198 15.0109 76.3226 22.1813 75.0862 29.1381V29.1381ZM30.7826 39.6C29.823 39.5998 28.8752 39.8124 28.0077 40.2226C27.1401 40.6329 26.3743 41.2304 25.7655 41.9722C25.1567 42.714 24.72 43.5816 24.4868 44.5126C24.2537 45.4435 24.23 46.4145 24.4173 47.3557C24.6678 48.6146 25.2858 49.771 26.1933 50.6786C27.1009 51.5863 28.2572 52.2045 29.516 52.4551C30.4572 52.6422 31.4282 52.6183 32.359 52.3851C33.2898 52.1518 34.1574 51.715 34.8991 51.1062C35.6408 50.4973 36.2382 49.7315 36.6483 48.864C37.0585 47.9964 37.2711 47.0487 37.2708 46.0891V40.0307C37.265 39.9148 37.2164 39.8052 37.1343 39.7232C37.0523 39.6411 36.9427 39.5925 36.8268 39.5867L30.7826 39.6Z" fill="#702AF7"/>
</g>
<defs>
<clipPath id="clip0_1344_37">
<rect width="80" height="80" fill="white"/>
</clipPath>
</defs>
</svg>
