<svg width="80" height="80" viewBox="0 0 80 80" fill="none" xmlns="http://www.w3.org/2000/svg">
<g clip-path="url(#clip0_1344_46)">
<path d="M14.017 71.1477C12.8189 71.1477 12.4705 70.4501 12.4705 69.4048C12.4705 69.0565 12.5143 68.6635 12.5681 68.2495C12.8306 66.442 13.4713 65.4077 15.0178 65.4077C16.0638 65.4077 16.5737 65.8756 16.5737 66.7251V67.1393H17.6114C17.6229 67.1393 17.6229 66.7581 17.6229 66.6713C17.6229 65.4298 16.8712 64.2524 15.0194 64.2524C12.5032 64.2524 11.4685 65.6193 11.0873 68.299C11.0327 68.6587 11 68.9943 11 69.3526C11 70.932 11.6214 72.3687 13.8432 72.3687C15.5312 72.3687 16.5339 71.5456 17.1217 70.5325L16.1303 69.8649C15.488 70.8781 14.7903 71.1477 14.017 71.1477V71.1477ZM20.825 66.159C18.8096 66.159 17.9388 67.1932 17.6448 69.2515C17.6103 69.4897 17.5918 69.73 17.5895 69.9708C17.5895 71.2992 18.2105 72.3564 19.931 72.3564C21.9465 72.3564 22.829 71.2778 23.123 69.2515C23.1557 68.9904 23.1776 68.7507 23.1776 68.5113C23.178 67.161 22.5357 66.159 20.825 66.159V66.159ZM21.6638 69.2522C21.4457 70.7448 20.9779 71.2023 20.0949 71.2023C19.3874 71.2023 19.0391 70.908 19.0391 70.0258C19.0391 69.8078 19.0612 69.5467 19.1045 69.2522C19.3225 67.7711 19.7581 67.3136 20.6512 67.3136C21.3702 67.3136 21.7292 67.6076 21.7292 68.5007C21.7292 68.7185 21.7071 68.9692 21.6638 69.2522ZM28.2439 64.3606L27.9066 66.3602C27.8849 66.534 27.896 66.4763 27.9618 66.6397C27.6459 66.4003 27.0791 66.2419 26.6978 66.2419C24.8896 66.2419 23.877 67.0604 23.5505 69.3477C23.5124 69.5892 23.4942 69.8334 23.496 70.0778C23.496 71.7449 24.4761 72.3663 25.7937 72.3663C26.35 72.3663 26.8942 72.3779 27.3186 72.0189L27.427 72.6965H28.4729L29.6927 64.3606H28.2439ZM27.2092 70.8859C26.7195 71.1793 26.2406 71.2456 25.9466 71.2456C25.1514 71.2456 24.9336 70.8314 24.9336 70.1674C24.9336 69.9167 24.9662 69.6233 25.0102 69.3065C25.2603 67.5749 25.816 67.2694 26.5351 67.2694C27.0029 67.2694 27.3621 67.3461 27.7005 67.5317L27.2092 70.8859ZM32.8736 66.159C30.8798 66.159 29.9439 67.106 29.6276 69.2515C29.5944 69.5133 29.5725 69.764 29.5725 70.0035C29.5725 71.474 30.3245 72.3564 31.9794 72.3564C33.2648 72.3564 34.2242 71.8223 34.7358 70.842L33.6355 70.3953C33.3201 70.8742 32.8953 71.2011 32.1436 71.2011C31.3378 71.2011 31.0108 70.9842 31.0108 70.2652C31.0108 70.1234 31.0219 69.9173 31.0437 69.9173H34.9752C35.0305 69.3616 35.0949 68.9688 35.0949 68.643C35.0949 67.5544 34.6814 66.1588 32.8736 66.1588V66.159ZM33.6249 68.8065H31.2286C31.4688 68.2507 31.871 67.3905 32.6991 67.3905C33.3415 67.3905 33.6578 67.766 33.6578 68.4086C33.6571 68.5175 33.6472 68.8065 33.6249 68.8065V68.8065ZM39.2866 66.0278L39.4171 64.9164H36.3451L36.215 66.0278H37.0209L36.1501 71.5849H35.3431L35.2133 72.6965H38.2846L38.4159 71.5849H37.6093L38.4803 66.0278H39.2866ZM45.5283 67.6949L45.9208 66.5835H44.8643L44.1024 66.7408C43.6774 66.4691 43.1 66.2651 42.5559 66.2651C40.9977 66.2651 39.6695 67.0175 39.6695 68.728C39.6695 69.2078 39.8435 69.595 40.0501 69.8568C39.724 70.0306 39.4406 70.3219 39.4406 70.7146C39.4406 70.8887 39.5055 71.0669 39.6368 71.2299C38.9827 71.6227 38.5809 72.2736 38.5809 73.0354C38.5809 74.5066 40.1164 74.8204 41.2926 74.8204C42.7737 74.8204 44.5387 74.482 44.5387 72.5975C44.5387 71.9551 44.1358 71.4532 42.9703 71.2354L40.8683 70.8427C40.6289 70.7987 40.5743 70.7225 40.5743 70.6136C40.5743 70.4501 40.6733 70.3635 40.8358 70.3635L40.9777 70.3852C41.2609 70.4503 41.5878 70.4835 41.9251 70.4835C43.4396 70.4835 44.7899 69.8296 44.7899 68.1305C44.7899 67.8906 44.7466 67.7283 44.6377 67.4665C44.8226 67.554 45.0627 67.6956 45.1599 67.6956H45.5283V67.6949ZM42.5336 72.2036C42.9471 72.2802 43.0885 72.4324 43.0885 72.7048C43.0885 73.5873 42.1408 73.6962 41.4549 73.6962C40.4092 73.6962 40.0174 73.4461 40.0174 72.8899C40.0174 72.3995 40.1585 72.1713 40.4859 71.8223L42.5336 72.2036ZM42.0862 69.3505C41.4545 69.3505 41.1059 69.1221 41.1059 68.5769C41.1059 67.7711 41.5744 67.3026 42.3913 67.3026C43.0449 67.3026 43.3611 67.5749 43.3611 68.1079C43.3611 68.9142 42.9031 69.3505 42.0862 69.3505V69.3505ZM49.3978 66.159C48.7877 66.159 48.2436 66.4583 47.5679 66.9915L47.47 66.5835H46.2714L45.4329 72.6963H46.8816L47.5136 68.0607C47.9386 67.7994 48.461 67.42 48.9076 67.42C49.4519 67.42 49.6485 67.6827 49.6485 68.1834C49.6485 68.3034 49.637 68.6587 49.6151 68.7892L49.0821 72.6963H50.531L51.064 68.7574C51.0861 68.5732 51.1077 68.2696 51.1077 68.0957C51.1084 67.0597 50.6176 66.159 49.3978 66.159V66.159ZM53.8597 71.165L53.8708 71.0153L54.5021 66.5835H52.0948L51.943 67.6949H52.9989C52.9116 67.6949 52.8573 67.7923 52.8467 67.88L52.4109 70.8316C52.3892 70.9737 52.3786 71.2693 52.3786 71.3883C52.3786 72.1506 52.7921 72.6965 53.6412 72.6965H54.3821L54.5456 71.5849H54.0775C53.9136 71.5849 53.8597 71.2955 53.8597 71.165V71.165ZM54.7961 64.3606H53.3802C53.2929 64.3606 53.2929 64.0399 53.2823 64.1488L53.0857 65.7149C53.0744 65.8134 53.0744 66.028 53.1617 66.028H54.5783C54.6656 66.028 54.6656 65.6472 54.6762 65.5482L54.8728 64.3395C54.8838 64.2306 54.8838 64.3606 54.7961 64.3606ZM57.7502 71.202C57.3913 71.202 57.2168 71.0494 57.2168 70.7232L57.2278 70.7008L57.6853 67.6949H59.3407L59.8415 66.5835H57.8375L58.1748 64.1378L56.6506 64.6252L56.3778 66.5835H55.4958L55.3436 67.6949H56.3672C56.2694 68.2507 56.1711 67.8901 56.1605 67.9995L55.7682 70.6352C55.7465 70.7554 55.7465 70.8424 55.7465 70.9509C55.7465 71.9858 56.5088 72.373 57.4247 72.373C58.2738 72.373 58.9601 72.1251 59.4943 71.6777L58.8185 70.8466C58.4801 71.0531 58.2517 71.202 57.7502 71.202ZM63.0657 66.159C61.0725 66.159 60.1359 67.106 59.8198 69.2515C59.7871 69.5133 59.7653 69.764 59.7653 70.0035C59.7653 71.474 60.5167 72.3564 62.1721 72.3564C63.4575 72.3564 64.4169 71.8223 64.928 70.842L63.8282 70.3953C63.5128 70.8742 63.0875 71.2011 62.3356 71.2011C61.5302 71.2011 61.2028 70.9842 61.2028 70.2652C61.2028 70.1234 61.2146 69.9173 61.2365 69.9173H65.1682C65.2225 69.3616 65.2879 68.9688 65.2879 68.643C65.2879 67.5544 64.8742 66.1588 63.0657 66.1588V66.159ZM63.8176 68.8065H61.4213C61.6608 68.2507 62.0632 67.3905 62.8918 67.3905C63.5342 67.3905 63.8505 67.766 63.8505 68.4086C63.8498 68.5175 63.8393 68.8065 63.8176 68.8065V68.8065ZM69.2965 66.1588C68.7736 66.1588 68.2835 66.4585 67.7931 66.9259L67.706 66.5835H66.5084L65.6694 72.6963H67.1291L67.7714 67.9627C68.1529 67.7345 68.5885 67.5395 69.0025 67.5395C69.2643 67.5395 69.5143 67.4978 69.7537 67.5303L69.94 66.2674C69.721 66.2239 69.5032 66.159 69.2965 66.159V66.1588ZM32.3059 59.9823C29.0089 58.5571 25.9238 54.9351 25.9164 51.229C25.9074 47.1884 28.4681 43.7579 31.6529 41.5034C31.2701 42.95 31.0612 44.2731 32.0098 45.5671C32.8916 46.77 34.436 47.3546 35.8943 47.0373C39.3018 46.2914 39.4581 42.5455 37.438 40.3631C35.4408 38.2019 33.5086 35.7607 34.2689 32.6265C34.6494 31.0554 35.6141 29.5837 36.8362 28.5318C35.8969 31.0004 38.5662 33.4349 40.325 34.6475C43.3758 36.7514 46.7232 38.3414 49.5283 40.8077C52.479 43.3996 54.658 46.9043 54.218 50.9691C53.7412 55.3748 50.2402 58.439 46.3134 59.986C54.6115 58.1544 63.1856 51.7141 63.3613 42.5112C63.5068 34.9399 58.3129 29.1131 51.879 25.7773L51.5429 25.5938C51.7195 26.0222 51.7773 26.3867 51.7706 26.7129C51.8302 26.4693 51.8663 26.2205 51.8783 25.97C51.8768 26.273 51.8372 26.5747 51.7605 26.8679L51.7706 26.7129C51.6751 27.1149 51.5141 27.4984 51.2942 27.8482L51.3886 27.7467C50.1051 29.8757 46.6302 30.338 44.9135 28.1335C42.1539 24.5874 44.9713 20.7641 45.3655 17.009C45.8589 12.3028 42.9075 7.73403 39.2481 5C41.2636 8.26035 38.6083 12.5738 36.484 14.9853C34.424 17.3228 31.9189 19.2745 29.6448 21.3984C27.2021 23.6796 24.8537 26.0826 22.8458 28.76C18.83 34.1189 16.3716 40.8588 18.1782 47.5443C19.9837 54.2253 25.7709 58.4781 32.3061 59.982L32.3059 59.9823Z" fill="#EE4323"/>
</g>
<defs>
<clipPath id="clip0_1344_46">
<rect width="58.94" height="70" fill="white" transform="translate(11 5)"/>
</clipPath>
</defs>
</svg>
