<svg width="80" height="80" viewBox="0 0 80 80" fill="none" xmlns="http://www.w3.org/2000/svg">
<g clip-path="url(#clip0_1344_2)">
<path d="M36.6445 5H48.0834V57.4286C42.2242 58.5369 37.9108 58.9729 33.2438 58.9729C19.2726 58.9583 12 52.7167 12 40.7292C12 29.1792 19.7143 21.6833 31.6685 21.6833C33.5236 21.6833 34.9367 21.8293 36.6445 22.2666V5ZM37.0453 31.7149C35.7056 31.2773 34.6016 31.1315 33.1882 31.1315C27.4026 31.1315 24.0607 34.6606 24.0607 40.8453C24.0607 46.8669 27.2555 50.1918 33.1148 50.1918C34.3807 50.1918 35.4112 50.1205 37.0453 49.9017V31.7149V31.7149Z" fill="#2BA977"/>
<path d="M66.7897 23.0909V49.3411C66.7897 58.3812 66.1125 62.7285 64.125 66.4766C62.27 70.08 59.8262 72.3522 54.7766 74.8618L44.1621 69.8599C49.2117 67.5132 51.6555 65.4396 53.2161 62.2751C54.85 59.0391 55.3653 55.291 55.3653 45.4327V23.0911H66.7897V23.0909ZM54.2126 5H65.6515V16.623H54.2126V5Z" fill="#2BA977"/>
</g>
<defs>
<clipPath id="clip0_1344_2">
<rect width="54.964" height="70" fill="white" transform="translate(12 5)"/>
</clipPath>
</defs>
</svg>
