<svg width="80" height="80" viewBox="0 0 80 80" fill="none" xmlns="http://www.w3.org/2000/svg">
<g clip-path="url(#clip0_1344_78)">
<path d="M36.9196 5.88858C38.6478 4.8994 40.8987 4.89493 42.6254 5.88858C51.3121 10.797 60.0015 15.6978 68.6867 20.6092C70.3203 21.5294 71.413 23.3474 71.3964 25.2297V54.7608C71.4085 56.721 70.2079 58.5825 68.4844 59.4818C59.8263 64.3632 51.1726 69.2505 42.5159 74.1319C40.752 75.1405 38.4559 75.0628 36.7471 73.9716C34.1514 72.4668 31.5512 70.9695 28.9553 69.4662C28.4248 69.15 27.8268 68.8983 27.4523 68.384C27.7834 67.9377 28.3754 67.8821 28.8565 67.6872C29.94 67.3427 30.9351 66.7896 31.9305 66.2529C32.1822 66.0807 32.4895 66.1467 32.7308 66.3009C34.9504 67.5735 37.1505 68.8832 39.3776 70.1437C39.8527 70.4179 40.3337 70.0538 40.7398 69.8274C49.2362 65.0255 57.7429 60.2416 66.2377 55.4382C66.5525 55.2868 66.7265 54.9527 66.7009 54.6079C66.7069 44.8662 66.7024 35.1228 66.7039 25.3811C66.7399 24.9899 66.5135 24.6302 66.1598 24.4701C57.5317 19.6111 48.908 14.7446 40.2814 9.8843C40.1319 9.78154 39.9549 9.72641 39.7735 9.72614C39.5921 9.72588 39.4149 9.78049 39.2651 9.88281C30.6385 14.7446 22.0163 19.6155 13.3897 24.4743C13.0372 24.6347 12.8006 24.9884 12.8426 25.3811C12.8441 35.1228 12.8426 44.8662 12.8426 54.6094C12.8276 54.7776 12.8646 54.9464 12.9485 55.0929C13.0324 55.2395 13.1591 55.3569 13.3117 55.4293C15.6138 56.7347 17.9188 58.0309 20.2224 59.3319C21.5201 60.0304 23.1135 60.4454 24.5433 59.9102C25.805 59.4577 26.6894 58.1702 26.6654 56.8305C26.6773 47.1457 26.6594 37.4593 26.6743 27.776C26.6428 27.3461 27.0506 26.9909 27.4686 27.0313C28.5747 27.0239 29.6823 27.0164 30.7884 27.0343C31.2501 27.0239 31.5679 27.4868 31.5108 27.92C31.5063 37.6661 31.5227 47.4125 31.5033 57.1586C31.5063 59.7561 30.4392 62.5824 28.0366 63.8533C25.0767 65.3866 21.4183 65.0615 18.4942 63.5912C15.9628 62.3277 13.5471 60.8366 11.0606 59.483C9.33267 58.5887 8.13795 56.7198 8.15012 54.761V25.2297C8.132 23.3084 9.26813 21.4574 10.9526 20.5506C19.6093 15.6653 28.2644 10.7762 36.9196 5.88858Z" fill="#8CC84B"/>
<path d="M44.4718 26.3448C48.2474 26.1018 52.2892 26.2008 55.6867 28.0608C58.3172 29.4861 59.7755 32.4775 59.8219 35.3999C59.7485 35.794 59.3364 36.0115 58.9601 35.9844C57.8647 35.9829 56.769 35.9993 55.6736 35.977C55.2089 35.9949 54.9388 35.5664 54.8805 35.1556C54.5657 33.7573 53.8032 32.3725 52.4871 31.6981C50.4668 30.6865 48.1242 30.7374 45.9212 30.7585C44.313 30.8439 42.5836 30.9832 41.221 31.9289C40.175 32.6453 39.8573 34.0915 40.2306 35.2561C40.5826 36.0924 41.548 36.3622 42.3378 36.611C46.8878 37.801 51.7094 37.6825 56.1725 39.2486C58.0203 39.887 59.8279 41.1282 60.4604 43.0629C61.2877 45.6558 60.9251 48.7552 59.0802 50.8368C57.5842 52.5498 55.4052 53.4822 53.232 53.9886C50.3409 54.6332 47.3406 54.6496 44.4046 54.3634C41.6438 54.0486 38.7708 53.3233 36.6395 51.4423C34.817 49.8598 33.9269 47.3942 34.0153 45.0144C34.0364 44.6125 34.4365 44.3323 34.8215 44.3653C35.9246 44.3564 37.0277 44.3534 38.1309 44.3668C38.5715 44.3353 38.8981 44.7161 38.9207 45.1313C39.1243 46.4636 39.6249 47.8618 40.7866 48.6517C43.0286 50.0981 45.8418 49.9991 48.409 50.0395C50.5358 49.9452 52.9232 49.9166 54.6588 48.5109C55.5745 47.7092 55.8458 46.3678 55.5984 45.2137C55.3303 44.2395 54.311 43.7854 53.4358 43.4886C48.9441 42.0677 44.0687 42.5833 39.6205 40.9765C37.8146 40.3383 36.0684 39.1317 35.3746 37.2765C34.4065 34.6507 34.8501 31.4029 36.8882 29.3915C38.8755 27.3908 41.7443 26.6203 44.4718 26.3445V26.3448Z" fill="#8CC84B"/>
</g>
<defs>
<clipPath id="clip0_1344_78">
<rect width="63.56" height="70" fill="white" transform="translate(8 5)"/>
</clipPath>
</defs>
</svg>
