<svg width="80" height="80" viewBox="0 0 80 80" fill="none" xmlns="http://www.w3.org/2000/svg">
<g clip-path="url(#clip0_1344_68)">
<path d="M10.2803 35.3485C10.1449 35.3485 10.1111 35.2808 10.1788 35.1793L10.8896 34.2653C10.9573 34.1638 11.1265 34.0961 11.2619 34.0961H23.3461C23.4815 34.0961 23.5153 34.1976 23.4476 34.2992L22.8722 35.1793C22.8045 35.2808 22.6352 35.3824 22.5337 35.3824L10.2803 35.3485ZM5.16909 38.4626C5.03369 38.4626 4.99984 38.3949 5.06754 38.2934L5.77837 37.3795C5.84607 37.2779 6.01532 37.2102 6.15071 37.2102H21.5859C21.7213 37.2102 21.789 37.3118 21.7552 37.4133L21.4844 38.2257C21.4505 38.3611 21.3151 38.4288 21.1797 38.4288L5.16909 38.4626ZM13.3606 41.5767C13.2252 41.5767 13.1913 41.4752 13.259 41.3737L13.7329 40.5274C13.8006 40.4259 13.936 40.3243 14.0714 40.3243H20.8412C20.9766 40.3243 21.0443 40.4259 21.0443 40.5613L20.9766 41.3737C20.9766 41.509 20.8412 41.6106 20.7397 41.6106L13.3606 41.5767ZM48.496 34.7392C46.3635 35.2808 44.908 35.687 42.8093 36.2286C42.3016 36.364 42.2677 36.3978 41.8277 35.8901C41.32 35.3147 40.9476 34.9423 40.2368 34.6038C38.1043 33.5545 36.0395 33.8591 34.1101 35.1116C31.8084 36.6009 30.6236 38.8011 30.6575 41.5429C30.6913 44.2508 32.553 46.4849 35.2271 46.8572C37.5289 47.1619 39.4583 46.3495 40.9815 44.6232C41.2861 44.2508 41.5569 43.8446 41.8954 43.3708H35.3625C34.6517 43.3708 34.4824 42.9307 34.7194 42.3553C35.1594 41.306 35.9718 39.5458 36.4457 38.6657C36.5472 38.4626 36.7842 38.1241 37.2919 38.1241H49.613C49.5453 39.0381 49.5453 39.952 49.4099 40.8659C49.0376 43.3031 48.1236 45.5371 46.6343 47.5003C44.1971 50.716 41.0153 52.7131 36.9873 53.2547C33.6701 53.6947 30.5898 53.0516 27.8819 51.0207C25.377 49.1251 23.9554 46.6203 23.583 43.5061C23.143 39.8166 24.2261 36.4994 26.4602 33.5883C28.8635 30.4404 32.0453 28.4433 35.9379 27.7324C39.1198 27.157 42.1662 27.5294 44.908 29.3911C46.702 30.5758 47.9882 32.2005 48.8345 34.1638C49.0376 34.4684 48.9022 34.6377 48.496 34.7392Z" fill="#00ACD7"/>
<path d="M59.7001 53.4578C56.6198 53.3901 53.8104 52.5101 51.4409 50.4791C49.4438 48.7528 48.1914 46.5526 47.7852 43.9462C47.1759 40.1213 48.2253 36.7364 50.527 33.7238C52.998 30.4743 55.9767 28.7818 60.0047 28.071C63.4574 27.4617 66.7069 27.8002 69.6518 29.7973C72.3258 31.6251 73.9844 34.0961 74.4245 37.3456C74.9999 41.9153 73.6798 45.6387 70.5318 48.8205C68.2978 51.0884 65.556 52.5101 62.408 53.1532C61.4941 53.3224 60.5802 53.3563 59.7001 53.4578V53.4578ZM67.7562 39.7828C67.7224 39.3427 67.7224 39.0043 67.6547 38.6658C67.0454 35.3147 63.9651 33.4191 60.7494 34.1638C57.6015 34.8747 55.5705 36.8718 54.8258 40.0536C54.2166 42.6938 55.5028 45.3679 57.94 46.4511C59.8017 47.2634 61.6634 47.1619 63.4574 46.248C66.1314 44.8602 67.587 42.6938 67.7562 39.7828V39.7828Z" fill="#00ACD7"/>
</g>
<defs>
<clipPath id="clip0_1344_68">
<rect width="70" height="26.852" fill="white" transform="translate(5 27)"/>
</clipPath>
</defs>
</svg>
