<svg width="80" height="80" viewBox="0 0 80 80" fill="none" xmlns="http://www.w3.org/2000/svg">
<rect width="80" height="80" rx="6" fill="#0D7963"/>
<g clip-path="url(#clip0_1344_41)">
<path d="M29.2745 48.2596C27.2003 46.628 24.9872 45.0644 23.4753 42.8611C20.2926 38.9757 17.8428 34.4783 16.1679 29.7513C15.1553 26.6773 14.8085 23.3818 13.5023 20.4272C12.1379 18.2805 13.7374 15.9355 16.0886 15.2535C17.1346 15.0518 18.9749 14.0643 16.7534 14.771C14.7613 16.2316 14.5694 13.4435 16.6117 13.267C18.0055 13.0821 18.5186 11.9416 18.0415 10.915C16.5447 9.93853 21.6696 8.8672 19.0907 7.41061C16.406 4.51317 22.8476 3.95538 21.258 7.24659C20.8781 9.77707 25.7607 6.78177 24.6269 9.70452C25.7788 11.1084 28.9394 10.0247 28.8601 11.9929C30.5377 12.1082 31.1136 13.5188 32.6867 13.6273C34.3199 14.3647 37.2776 14.9446 37.8324 16.7837C36.2135 18.065 32.4657 14.1366 32.2847 17.684C32.7744 22.9253 32.6495 28.3243 34.5665 33.3153C35.4731 36.3369 37.6724 38.7155 39.6574 41.0694C41.5578 43.3742 44.1312 44.9978 46.7549 46.3637C49.0556 47.4487 51.5361 48.1677 54.0442 48.62C55.0611 47.8422 56.8568 44.9503 58.4425 46.1689C58.5191 47.5408 55.2949 49.0346 58.2913 48.8829C60.0523 48.3515 61.2723 50.2432 62.7217 48.5364C64.0572 50.1183 68.2719 47.5266 67.3221 50.7595C66.0367 51.5887 64.163 51.0877 62.8763 52.2286C60.7549 51.1686 59.0658 53.1759 56.7164 52.9228C54.1083 53.3899 51.4538 53.578 48.8097 53.5818C44.4708 53.2395 40.0403 53.0951 35.9129 51.5842C33.587 50.9086 31.3182 49.5841 29.2745 48.2596V48.2596ZM32.9386 49.8483C35.2089 50.829 37.4292 51.864 39.9178 52.1769C43.8657 52.7251 47.9428 53.5708 51.9045 52.8002C50.1116 51.9908 48.2572 53.1147 46.4711 52.2216C44.3289 52.682 42.0296 52.1033 39.8508 51.818C37.3746 50.7152 34.7013 49.957 32.3823 48.5239C29.4832 47.4655 33.8806 49.8817 34.6637 50.0781C36.4749 51.1056 32.6714 49.5505 32.1343 49.1235C30.6171 48.2722 30.4239 48.4502 31.9845 49.3142C32.2987 49.498 32.6091 49.6913 32.9386 49.8483V49.8483ZM28.618 46.795C30.8187 47.6102 28.6082 45.248 27.6011 45.3845C27.1544 44.6095 25.8943 44.1198 26.7831 43.7039C25.1849 44.2592 25.1083 41.5936 24.3573 41.975C22.6657 41.4409 23.6991 39.5488 21.6835 38.3862C21.4997 37.1617 19.6816 36.1004 19.103 34.2543C18.8471 33.3085 17.0484 30.5946 18.1529 33.1204C19.0932 35.552 20.7472 37.6361 22.1245 39.7158C23.1928 41.6964 24.456 43.768 26.4021 45.0033C27.0589 45.6334 27.6915 46.5973 28.6178 46.795H28.618ZM22.2804 39.8354C22.3566 39.5029 22.6825 40.5544 22.2804 39.8354V39.8354ZM31.2542 47.7714C31.7409 47.5531 30.553 47.4961 31.2542 47.7714V47.7714ZM32.4476 48.2071C32.324 47.6059 31.9024 48.5436 32.4476 48.2071V48.2071ZM33.9432 48.8304C34.6539 48.1524 32.8454 48.4028 33.9432 48.8304V48.8304ZM36.5055 50.2585C36.938 49.6201 35.1213 50.0181 36.5055 50.2585V50.2585ZM31.5854 46.8286C32.6895 46.1134 30.1567 46.8186 31.5854 46.8286V46.8286ZM32.7065 47.3876C32.6744 47.0105 32.3072 47.5572 32.7065 47.3876V47.3876ZM38.311 50.8861C39.2124 51.4551 43.5736 52.1325 40.843 51.1196C40.385 51.2158 35.7793 49.8162 38.311 50.8861V50.8861ZM29.4138 43.9558C29.3262 43.5778 28.014 43.5371 29.4138 43.9558V43.9558ZM32.022 45.4779C32.7021 45.0035 30.6128 45.112 32.022 45.4779V45.4779ZM34.2169 46.823C35.1921 46.4559 32.637 46.4544 34.2169 46.823V46.823ZM28.351 42.7998C29.4083 43.6105 32.6163 42.904 29.9701 42.3158C28.7669 41.6744 26.0543 41.2351 27.9034 42.7026L28.351 42.7998ZM35.7044 47.2874C36.1452 46.5376 33.8568 46.8588 35.7044 47.2874V47.2874ZM33.47 45.5122C36.0548 46.2427 31.2959 43.8762 32.8318 45.2424L33.1728 45.3969L33.47 45.5122ZM37.9498 48.1011C40.3979 48.1245 35.7378 47.7633 37.9498 48.1011V48.1011ZM27.4094 41.3834C27.3133 40.9273 26.8057 41.4213 27.4094 41.3834V41.3834ZM42.0909 50.4242C42.1562 49.6009 41.2923 51.0377 42.0909 50.4242V50.4242ZM31.5882 43.9418C31.4393 43.5078 30.8232 43.9237 31.5882 43.9418V43.9418ZM27.6415 41.0971C29.0469 41.0124 25.7163 40.478 27.6415 41.0971V41.0971ZM22.9661 38.0754C22.791 37.401 21.4373 36.8641 22.9661 38.0754V38.0754ZM35.2398 45.8645C34.9824 45.5707 35.1185 45.9283 35.2398 45.8645V45.8645ZM42.878 50.5525C42.8546 50.103 42.4621 50.7218 42.878 50.5525V50.5525ZM34.5637 45.1661C34.7016 44.5874 33.3647 44.9905 34.5637 45.1661V45.1661ZM28.8726 41.5589C29.9189 41.4475 27.1963 40.8522 28.8726 41.5589V41.5589ZM38.4993 47.5408C40.1295 46.8952 36.9106 47.2262 38.4993 47.5408V47.5408ZM33.4926 44.1424C35.3704 44.384 31.2572 42.8638 33.0795 44.0058L33.4926 44.1424ZM40.0193 48.1554C41.7737 47.1081 41.1951 50.6108 42.9952 48.4517C44.7701 47.1553 41.462 50.0543 43.649 48.6828C45.2319 47.624 47.5688 49.1848 49.045 49.6926C50.1061 49.6411 51.1385 50.6108 52.2275 50.0206C54.3225 49.4558 48.1296 49.1835 49.7527 48.183C47.836 48.7413 46.42 47.5183 45.4768 46.2899C43.326 45.7932 40.8402 44.6944 39.7663 42.79C39.3281 42.0765 40.3982 42.8917 39.3881 41.7232C38.093 40.5712 37.4463 39.262 36.5766 37.8614C35.5374 37.3076 35.4151 35.676 35.3106 37.8074C35.3191 36.462 34.0559 35.5564 33.747 35.9321C33.7415 34.6368 35.0994 35.2865 34.1491 34.3281C33.9449 32.9855 33.2713 31.5864 33.0695 30.07C32.7555 29.3397 33.0248 27.7748 31.9958 29.4286C31.6214 31.1773 31.872 27.2808 32.4549 28.5649C33.2199 27.2545 32.1792 27.4087 32.1375 27.5897C32.6357 26.4839 32.4534 24.9146 32.0068 25.5128C32.2726 24.34 32.427 21.1977 31.6105 21.7555C32.1056 20.5287 32.5495 16.1436 30.3986 17.8161C29.5279 17.8284 28.0187 18.132 27.3065 18.4866C29.5419 19.7192 27.081 18.9317 26.1698 18.7355C26.0516 19.8762 25.1502 19.3837 24.0233 19.3948C25.8235 19.6173 23.1469 21.2349 22.1164 20.6065C20.7753 21.2464 23.2724 22.8462 22.1428 23.3412C22.2821 24.0856 20.0895 23.0717 20.2607 24.7938C18.9598 24.2453 20.0826 26.8358 20.7336 25.9595C22.9469 26.559 22.2917 27.9237 22.3472 29.2214C21.9868 29.9766 20.5666 27.4451 22.0313 27.5621C20.8753 25.6851 20.7532 26.883 19.7931 27.7552C19.5706 27.818 22.2415 28.9959 20.5653 29.5775C22.0398 29.8058 22.083 31.0967 22.3836 31.9133C23.2696 32.8366 23.0871 30.8933 24.1489 32.0038C23.4766 31.0145 20.593 29.2169 22.915 29.7934C22.9022 28.7987 22.4946 27.9958 23.2069 28.0152C23.9123 26.7396 22.4683 31.162 24.057 29.5401C24.4963 29.3482 24.6064 28.263 25.3965 29.643C26.544 30.7727 25.8112 31.5902 24.1918 30.5555C24.4811 31.5389 26.3577 31.8893 26.0043 33.4267C26.3783 34.7789 26.9016 34.2807 27.3577 34.2028C27.7151 35.516 27.9187 34.5506 27.9353 33.9245C29.5725 34.2755 29.1885 35.2435 29.7017 35.9196C30.8298 36.4284 28.0868 32.4682 30.0233 34.7287C32.0609 36.569 30.7883 37.3368 28.9592 37.0422C30.1165 36.9486 30.489 38.6072 31.9375 38.5487C33.2575 39.1774 34.1521 41.5896 31.8762 40.585C31.0874 39.8728 28.2925 38.9951 30.5756 40.3487C32.6816 41.3251 34.3565 41.908 36.3888 43.1338C37.8426 44.1715 38.471 45.3605 39.022 45.596C37.7994 46.1799 35.3387 45.1299 37.1663 44.8087C36.0256 44.6012 34.7433 44.0241 35.835 45.4443C36.7642 46.2206 39.1249 46.1382 39.5494 46.2259C39.1905 47.0162 38.5744 47.079 39.5632 47.14C38.4599 47.7284 39.918 47.8203 40.0195 48.1554H40.0193ZM37.763 41.7829C37.0912 41.0805 36.9174 39.766 37.6435 40.909C38.0164 41.0594 38.8358 43.0587 37.763 41.7829ZM45.1124 46.4514C45.531 46.4237 45.1247 46.7696 45.1124 46.4514V46.4514ZM36.7034 40.0609C36.6766 38.9993 36.9451 40.8799 36.7034 40.0609V40.0609ZM35.9729 39.0787C35.1272 37.447 37.037 39.5405 35.9729 39.0787V39.0787ZM27.1199 32.9691C27.6166 32.8366 27.3648 33.8173 27.1199 32.9691V32.9691ZM34.1659 36.7875C34.4705 35.6426 34.5235 37.7476 34.1659 36.7875V36.7875ZM29.1885 33.3263C28.8382 32.6949 29.9218 33.9192 29.1885 33.3263V33.3263ZM33.4592 34.6953C32.6593 32.9036 34.0268 33.7158 33.6372 34.9888L33.4592 34.6953ZM26.0935 29.7832C25.7361 29.195 25.1447 27.47 25.3353 26.943C25.5063 27.8012 27.1591 30.6348 26.1447 28.1171C25.0251 26.0068 27.4845 28.8013 27.7377 29.3286C27.856 29.8517 27.0463 29.1855 27.5943 30.4136C26.5942 29.0155 27.0044 31.1858 26.0935 29.7832ZM23.8176 28.2143C23.9108 26.8469 24.338 29.1518 23.8176 28.2143V28.2143ZM24.8415 28.5675C25.3297 27.5357 25.6691 30.006 24.8415 28.5675V28.5675ZM22.3778 26.662C21.5305 25.8187 20.917 25.0427 22.418 26.1387C22.9954 26.161 21.1329 24.3736 22.5574 25.5711C24.054 25.844 23.2958 28.0267 22.3778 26.662ZM23.6715 26.6286C24.1642 26.1404 23.9331 27.1085 23.6715 26.6286V26.6286ZM24.4686 26.883C23.7215 25.4849 25.3742 27.4702 24.4686 26.883V26.883ZM22.8856 25.3711C20.4222 23.177 25.9807 26.5171 23.2877 25.777L22.8856 25.3711ZM29.9452 29.4718C28.8784 28.8332 29.6614 24.9718 30.0261 27.6121C31.0625 27.2766 29.9686 28.9768 30.7409 28.96C30.62 30.0321 30.2737 30.418 29.9452 29.4718ZM32.5563 31.0158C32.6606 29.8517 32.7761 31.8119 32.5563 31.0158V31.0158ZM32.103 30.5665C32.2198 30.07 32.1141 31.1522 32.103 30.5665V30.5665ZM23.3681 24.6504C21.7854 22.4662 27.9685 26.8592 24.3824 25.2041C24.008 25.1054 23.5562 25.0705 23.3681 24.6504ZM28.397 27.3159C28.247 25.4769 28.7309 27.6202 28.397 27.3159V27.3159ZM32.214 29.7652C32.5089 28.7179 32.2366 30.4582 32.214 29.7652V29.7652ZM23.6117 23.8171C24.5522 23.6154 27.5094 25.4683 24.7941 24.3457C24.4924 24.0118 23.8483 24.1634 23.6117 23.8169V23.8171ZM31.6894 27.8429C31.7901 25.9623 32.2519 26.7203 31.6937 28.1128L31.6894 27.8427V27.8429ZM24.3114 23.1621C24.6952 22.5998 23.2928 20.6206 24.5128 22.4524C25.0404 22.8711 26.0388 23.1536 25.157 23.3302C26.5438 24.5532 24.8192 23.6614 24.3114 23.1621ZM31.2901 27.256C31.5548 25.1137 31.5242 28.5107 31.2901 27.256V27.256ZM23.51 21.1839C23.8036 21.0584 23.6657 21.5745 23.51 21.1839V21.1839ZM25.331 22.2675C25.7995 21.2839 26.1947 23.3636 25.331 22.2675V22.2675ZM30.4654 25.1233C30.4611 24.7463 30.5626 25.6728 30.4654 25.1233V25.1233ZM30.1675 24.4655C29.4553 22.7071 30.8313 25.396 30.1675 24.4655V24.4655ZM29.7306 23.3121C29.6115 22.5858 30.1369 24.2247 29.7306 23.3121V23.3121ZM30.4428 22.1548C29.9533 21.2934 31.0608 18.3571 31.1846 20.1781C30.6683 21.597 31.0357 22.3901 31.3944 20.487C32.0596 18.9902 31.2512 23.4431 30.4428 22.1548ZM31.1746 17.7882C31.3878 17.5265 31.2221 18.1037 31.1746 17.7882V17.7882ZM29.9523 41.8719C29.6627 41.6187 29.9895 42.0321 29.9523 41.8719V41.8719ZM32.47 43.1449C33.8706 43.5052 33.8638 42.9277 32.5976 42.7551C31.9175 42.1225 29.7682 41.4504 31.6922 42.6773C31.819 43.0002 32.2211 42.9917 32.47 43.1449ZM27.4984 39.8422C28.2689 40.4185 30.4041 41.4726 28.5971 40.0623C29.2064 39.3539 27.4314 38.9772 28.02 38.503C26.5217 37.5859 26.8372 37.668 27.8879 37.6974C26.0877 36.8918 28.1478 36.953 28.0506 36.5401C27.3565 36.4035 24.602 35.3156 26.2226 36.629C24.5756 35.79 25.8301 36.942 25.3323 36.8209C23.6474 36.3618 26.8321 38.1037 25.0651 37.671C26.0307 38.436 27.6651 39.6324 25.4727 38.4805C25.1849 38.8963 27.042 39.5267 27.4982 39.8422H27.4984ZM30.1314 41.3558C33.3324 42.3867 28.5608 40.094 30.1314 41.3558V41.3558ZM43.6111 49.5214C43.6528 48.8857 43.1741 50.0638 43.6111 49.5214V49.5214ZM44.9966 50.1043C45.7352 49.3895 45.0273 51.2449 46.2207 49.9292C46.233 48.9872 46.1845 48.4311 44.8492 49.5756C44.4803 49.7803 44.3165 50.6467 44.9966 50.1045V50.1043ZM23.0037 36.2927C22.7767 35.4009 21.4135 35.4047 23.0037 36.2927V36.2927ZM24.4822 37.2619C23.9327 36.351 22.5221 36.4371 24.4822 37.2619V37.2619ZM32.8997 42.338C33.7221 43.0685 36.6738 42.8736 33.8974 42.4286C33.4868 41.8206 31.2876 41.9667 32.8997 42.338ZM44.4693 49.4843C45.7338 48.4228 43.2439 49.9573 44.4693 49.4843V49.4843ZM47.0999 51.2911C47.108 50.9503 46.5547 51.44 47.0999 51.2911V51.2911ZM47.1042 50.8139C48.5048 49.3312 45.7478 50.9016 47.1042 50.8139V50.8139ZM19.3645 33.2459C18.171 31.5432 18.6231 30.778 17.4713 29.3869C17.2526 28.3228 15.4961 25.9106 16.563 28.466C17.5394 29.9615 17.8287 32.2761 19.3647 33.2459H19.3645ZM46.6645 50.3423C49.2424 48.677 45.6074 49.6175 46.6645 50.3423V50.3423ZM48.6316 51.1128C49.9225 50.0053 47.8149 50.8818 48.6316 51.1128V51.1128ZM22.5653 34.41C22.9341 33.8605 21.6111 34.3392 22.5653 34.41V34.41ZM48.221 50.5869C49.4702 49.7817 47.9332 49.9053 47.9945 50.6606L48.221 50.5869ZM31.2665 39.9007C31.2236 39.3554 30.606 39.9466 31.2665 39.9007V39.9007ZM32.314 40.5031C31.9803 39.8298 31.8022 40.6089 32.314 40.5031V40.5031ZM50.2256 51.1311C51.8267 49.9762 49.2562 50.9097 49.8904 51.3509L50.2256 51.1311ZM49.6123 50.8348C50.917 49.7426 48.2364 51.3188 49.6123 50.8348V50.8348ZM52.7446 52.9198C53.62 52.3341 51.6807 52.7307 52.7446 52.9198V52.9198ZM23.3681 34.0137C24.5407 34.2764 28.0572 36.9028 25.9833 34.196C24.9207 33.8816 25.5578 31.2843 24.4741 31.7434C25.2017 32.9591 25.0719 33.475 23.5445 32.7102C21.6265 31.7725 22.4666 33.1736 22.8425 33.5603C22.3302 33.6771 23.5183 34.0041 23.3679 34.0135L23.3681 34.0137ZM18.0221 29.792C18.2321 28.9223 16.0871 25.012 17.0095 27.8318C17.3418 28.423 17.3073 29.5426 18.0221 29.792V29.792ZM27.8347 35.8415C27.2297 35.3367 27.8056 35.7692 27.8347 35.8415V35.8415ZM29.3217 36.1882C29.3217 35.2671 27.6777 35.8138 29.3217 36.1882V36.1882ZM42.2173 44.3162C41.9711 43.6871 41.2451 44.3021 42.2173 44.3162V44.3162ZM42.8363 44.768C42.7442 44.4162 42.4785 44.8363 42.8363 44.768V44.768ZM47.947 47.9884C48.4382 47.6255 47.3335 47.9414 47.947 47.9884V47.9884ZM20.6917 30.4736C22.0979 29.9294 19.1849 30.0853 20.6917 30.4736V30.4736ZM41.0819 43.3185C41.0655 42.4088 40.1848 43.5454 41.0819 43.3185V43.3185ZM20.1365 29.1782C21.0393 28.874 19.3004 28.9782 20.1365 29.1782V29.1782ZM22.7574 30.4482C22.7418 30.1494 22.4806 30.5625 22.7574 30.4482V30.4482ZM54.7314 50.0555C55.8929 49.8205 58.5402 50.6469 58.9671 49.7483C57.5567 49.7135 54.0887 48.7521 53.9245 49.9762L54.2334 50.0251L54.7316 50.0555H54.7314ZM23.5904 30.6584C23.6117 29.736 22.8714 30.6237 23.5904 30.6584V30.6584ZM16.6995 25.8772C16.3866 24.12 15.5086 25.6113 16.6995 25.8772V25.8772ZM18.3423 26.2904C18.3633 25.7255 16.8382 25.7826 18.3423 26.2904V26.2904ZM19.2813 26.7522C19.01 26.5322 19.0698 27.0288 19.2813 26.7522V26.7522ZM25.1919 30.5429C25.4704 30.2868 24.5326 30.3538 25.1919 30.5429V30.5429ZM18.6567 25.7117C18.4969 24.3847 16.7523 25.5128 18.6567 25.7117V25.7117ZM15.2859 23.5248C15.2385 22.9128 14.9574 23.7556 15.2859 23.5248V23.5248ZM15.788 23.1468C15.7061 22.4203 15.3568 23.2383 15.788 23.1468V23.1468ZM18.5567 24.7991C19.728 24.34 16.4238 23.8475 18.3174 24.7129L18.5567 24.7991ZM55.6206 47.6935C56.3703 47.0064 54.669 47.4808 55.6206 47.6935V47.6935ZM60.0984 50.0138C60.399 49.1265 59.3415 50.1308 60.0984 50.0138V50.0138ZM18.8396 23.3482C18.9637 22.4888 17.9106 23.5193 18.8396 23.3482V23.3482ZM14.8992 20.7082C14.6877 19.4952 14.7168 17.3653 16.741 18.0846C14.0393 18.6215 18.612 21.4436 18.0347 19.2152C19.1711 19.2712 20.2577 18.5436 19.6608 19.6464C21.9005 19.4003 23.4517 17.4585 25.6146 17.7312C27.299 17.5074 29.1409 17.3389 30.9564 16.6601C32.4489 16.5529 33.8857 14.9461 33.0682 13.9932C31.0329 13.8209 28.9016 14.0754 26.6523 14.5234C24.1597 15.0407 21.8951 16.0255 19.3798 16.4486C16.9272 16.7784 19.8723 17.3555 19.1696 17.4849C17.8911 17.9286 20.6958 18.2277 19.0041 18.6964C17.9596 18.4977 16.8716 18.1388 17.3182 17.037C14.97 17.343 12.9056 18.3166 14.7615 20.7065L14.8994 20.7078L14.8992 20.7082ZM20.5596 17.8257C21.1091 15.7977 23.5085 19.4952 21.461 18.0956C21.2174 17.9118 20.8138 17.7629 20.5596 17.8257ZM20.6664 16.842C21.461 16.251 21.088 17.1747 20.6664 16.842V16.842ZM21.675 16.859C21.7477 15.9255 23.9859 17.3527 22.0438 17.1943L21.675 16.8588V16.859ZM23.055 16.304C23.56 15.7138 23.2013 16.8269 23.055 16.304V16.304ZM23.4085 16.0676C24.2486 15.059 28.1617 15.4232 25.2974 15.9685C24.5294 15.3898 23.9412 16.3093 23.4085 16.0676ZM28.5163 15.2801C28.3899 12.5241 31.0551 16.258 28.5163 15.2801V15.2801ZM29.9661 15.2716C30.4958 13.8835 32.0232 14.714 30.2122 14.992C30.2509 15.1409 30.158 15.71 29.9661 15.2716ZM18.2684 22.636C19.8512 21.6664 16.5878 21.7946 18.2684 22.636V22.636ZM19.4396 22.9602C19.9948 22.3705 18.2321 22.7209 19.4396 22.9602V22.9602ZM15.9898 20.5133C16.894 19.8177 14.9187 20.2491 15.9898 20.5133V20.5133ZM62.7412 49.7607C62.7676 48.9538 62.0499 50.1236 62.7412 49.7607V49.7607ZM57.9907 46.518C58.1255 45.5905 57.3801 46.5988 57.9907 46.518V46.518ZM64.0474 50.0738C65.3121 50.0781 67.8796 49.6798 65.1281 49.6813C64.6956 49.7483 62.6119 49.7345 64.0474 50.0738ZM20.4692 22.3909C21.4931 22.3214 22.0702 21.2626 20.2701 21.3226C17.4811 21.0348 22.7308 22.2784 19.9127 21.9223C19.5344 22.1727 20.4466 22.4605 20.4692 22.3909ZM21.3705 22.8475C21.2633 22.1907 21.0531 23.1963 21.3705 22.8475V22.8475ZM22.4402 19.9955C22.8839 19.4446 21.8254 19.8481 22.4402 19.9955V19.9955ZM19.0347 14.3049C20.8627 13.6846 23.3611 12.9862 24.2237 14.6112C23.3458 13.5554 23.8691 12.5147 24.6981 14.0603C25.8707 15.6226 26.4575 13.3495 25.6952 12.8249C26.5649 13.9043 27.5524 14.4151 26.2766 12.8934C27.6637 11.2254 23.5015 13.1117 22.5557 13.0921C22.1009 13.2963 17.8566 14.1743 19.0349 14.3049H19.0347ZM20.1058 12.2548C21.148 11.4689 23.7102 12.7234 22.066 11.4728C21.9047 11.3311 18.4661 12.4216 20.1058 12.2548ZM23.9051 12.4118C25.1236 12.4424 23.3794 10.7731 24.8315 11.5298C24.5937 10.751 23.1401 10.6048 22.4293 10.2934C22.0273 11.0056 23.2469 12.4216 23.9051 12.4118V12.4118ZM20.7721 8.96314C21.1938 8.39153 20.0322 9.25395 20.7721 8.96314V8.96314ZM22.3251 9.33437C24.2903 9.0744 21.8239 8.48875 21.9281 9.31373L22.3249 9.33437H22.3251ZM19.4255 7.06704C18.0412 5.26008 22.0283 7.3704 20.6217 5.47834C19.4381 4.53678 18.3016 6.53989 19.4255 7.06704V7.06704ZM37.1825 16.6309C37.8173 15.5066 34.5633 15.1146 36.7555 16.2327C36.9572 16.2997 36.9117 16.7086 37.1825 16.6309ZM24.298 58.5015C24.1576 59.0559 24.0706 59.9862 24.038 61.2919C24.038 61.5485 23.9225 61.677 23.6908 61.677C23.4592 61.677 23.2979 61.5649 23.2067 61.3417C22.9586 60.738 22.7237 60.317 22.4995 60.0766C22.2353 59.7958 21.8839 59.626 21.4454 59.5682C20.9742 59.4937 19.8004 59.4565 17.9236 59.4565C17.4939 59.4565 17.2124 59.5022 17.0805 59.5935C16.9978 59.6509 16.9565 59.7752 16.9565 59.9656V65.5837C16.9565 65.7738 17.0763 65.8645 17.3156 65.8566C18.0519 65.8481 19.1183 65.7979 20.5151 65.7077C20.7883 65.6741 20.9725 65.5854 21.0674 65.4405C21.1631 65.2958 21.2561 64.9223 21.3465 64.3183C21.4039 63.9875 21.5988 63.8592 21.9294 63.9341C22.2102 63.992 22.331 64.1203 22.2896 64.3183C22.0577 65.4432 21.9828 66.9066 22.0655 68.7091C22.0743 68.9236 21.9379 69.0397 21.6565 69.0563C21.4246 69.0812 21.2799 68.957 21.2225 68.684C21.008 67.6508 20.6083 67.0985 20.0261 67.0279C19.4432 66.9581 18.4937 66.9228 17.1797 66.9228C17.0308 66.9228 16.9565 66.9762 16.9565 67.0839V72.6649C16.9565 73.0785 17.109 73.3599 17.4147 73.5082C17.6551 73.6322 18.1717 73.7441 18.9649 73.8433C19.3706 73.8845 19.5478 74.0628 19.4989 74.3764C19.4489 74.6493 19.0856 74.757 18.4069 74.6991C16.4477 74.5417 14.8309 74.5502 13.5581 74.7244C13.2022 74.7733 13.025 74.6287 13.025 74.2902C13.025 74.0747 13.2022 73.9509 13.5581 73.9179C14.3684 73.8267 14.7732 73.1155 14.7732 71.7849V61.1677C14.7732 60.6227 14.6758 60.2032 14.482 59.9094C14.2873 59.6158 13.9255 59.3488 13.397 59.1093C13.066 58.9604 12.9422 58.7581 13.0248 58.5015C13.066 58.3447 13.1324 58.2575 13.2228 58.2413C13.3056 58.2162 13.5251 58.2328 13.8799 58.2911C14.4011 58.3737 15.6293 58.4151 17.5637 58.4151C19.8461 58.4151 21.8175 58.3652 23.4798 58.2662C24.0336 58.2326 24.311 58.2784 24.311 58.4024C24.311 58.436 24.3067 58.4685 24.298 58.5015V58.5015ZM32.3408 74.2453C32.3408 74.5761 32.1547 74.7208 31.7828 74.6793C30.6426 74.5717 29.2283 74.5878 27.5418 74.7285C27.2024 74.7621 26.9942 74.7533 26.915 74.7044C26.8363 74.6544 26.7976 74.5183 26.7976 74.2943C26.7976 74.0964 27.0225 73.9292 27.473 73.7922C27.9243 73.6563 28.1489 73.2489 28.1489 72.5711V61.3468C28.1489 60.6767 28.0517 60.1849 27.8579 59.8705C27.6632 59.5562 27.3222 59.3125 26.8346 59.1393C26.5781 59.0478 26.4496 58.9197 26.4496 58.7542C26.4496 58.5062 26.6357 58.3203 27.0078 58.1962C27.5703 58.0144 28.1534 57.7338 28.7571 57.353C29.2532 57.0551 29.5676 56.9069 29.6993 56.9069C30.005 56.9069 30.1586 57.117 30.1586 57.5389C30.1586 57.5063 30.142 57.9197 30.1084 58.7791C30.0844 59.5975 30.0759 60.4036 30.0844 61.1979L30.1333 72.2729C30.1333 72.7775 30.2575 73.1436 30.5056 73.371C30.7536 73.5982 31.1799 73.749 31.7828 73.8233C32.1547 73.8643 32.3408 74.0049 32.3408 74.2451V74.2453ZM43.5581 73.514C43.5581 73.688 43.242 73.9501 42.6098 74.3011C41.9769 74.6527 41.4703 74.8284 41.0904 74.8284C40.7675 74.8284 40.4826 74.6717 40.2346 74.3572C39.9865 74.043 39.8123 73.8862 39.7134 73.8862C39.6391 73.8862 39.2464 74.0558 38.5348 74.3942C37.8245 74.7336 37.1089 74.9033 36.3896 74.9033C35.7118 74.9033 35.1451 74.7044 34.6905 74.3083C34.1944 73.8696 33.9463 73.2744 33.9463 72.5218C33.9463 71.0913 35.5836 70.0664 38.858 69.4463C39.4196 69.3386 39.7055 69.1112 39.7132 68.764L39.7385 67.9701C39.7883 66.6143 39.1888 65.9366 37.94 65.9366C37.5843 65.9366 37.2476 66.2544 36.9287 66.8909C36.6111 67.5283 36.1537 67.871 35.5584 67.921C34.8807 67.9865 34.5414 67.7014 34.5414 67.0649C34.5414 66.6677 35.046 66.2055 36.0545 65.6758C37.1131 65.122 38.1304 64.8446 39.106 64.8446C40.7841 64.8446 41.615 65.643 41.5986 67.2387L41.5486 72.348C41.541 72.8855 41.7684 73.154 42.2309 73.154C42.3221 73.154 42.4959 73.1336 42.7519 73.0921C43.0086 73.0508 43.1575 73.03 43.199 73.03C43.4383 73.03 43.5581 73.1919 43.5581 73.514V73.514ZM39.7385 70.6867C39.747 70.4797 39.6987 70.3427 39.5953 70.2774C39.4919 70.2113 39.3294 70.1981 39.106 70.2395C37.1131 70.5952 36.1167 71.2445 36.1167 72.1869C36.1167 73.1378 36.6334 73.6131 37.6669 73.6131C38.0804 73.6131 38.5067 73.5348 38.9441 73.378C39.4574 73.1955 39.7134 72.9768 39.7134 72.72L39.7385 70.6865V70.6867ZM52.7789 72.0871C52.7789 72.9636 52.4411 73.6607 51.7678 74.1773C51.094 74.6942 50.1744 74.9525 49.0082 74.9525C48.2313 74.9525 47.4535 74.8699 46.6766 74.7044C46.0065 74.5555 45.618 74.4194 45.5106 74.2953C45.4442 74.179 45.4115 73.6133 45.4115 72.596C45.4115 72.1578 45.5106 71.9301 45.7093 71.914C45.9076 71.8889 46.0773 71.9967 46.2177 72.2361C46.8376 73.3195 47.8383 73.8613 49.2192 73.8613C50.3843 73.8613 50.9675 73.4557 50.9675 72.6452C50.9675 72.2903 50.8356 71.9923 50.5705 71.7527C50.281 71.4798 49.7195 71.1613 48.8841 70.7976C47.6767 70.2604 46.8704 69.7892 46.4656 69.3835C46.0271 68.9538 45.8082 68.3751 45.8082 67.6472C45.8082 66.7539 46.1514 66.06 46.8376 65.5639C47.4741 65.0839 48.3259 64.8446 49.3922 64.8446C50.0623 64.8446 50.6739 64.8978 51.2285 65.0056C51.8237 65.1133 52.1337 65.2452 52.1586 65.4026C52.2241 65.8651 52.3611 66.5352 52.5679 67.4121C52.5927 67.5189 52.4764 67.6059 52.2207 67.6721C51.9475 67.7299 51.7658 67.6842 51.6746 67.5359C51.0217 66.4688 50.195 65.9357 49.1941 65.9357C48.0615 65.9357 47.495 66.2995 47.495 67.0271C47.495 67.4325 47.6482 67.7546 47.9539 67.9941C48.227 68.2009 48.8675 68.5238 49.8763 68.9623C50.9347 69.4169 51.6539 69.8262 52.0347 70.1898C52.5308 70.6608 52.7789 71.2939 52.7789 72.0871ZM67.3697 74.2577C67.3697 74.547 67.1751 74.7002 66.7866 74.7165C66.2078 74.7251 65.4506 74.7663 64.5172 74.8406C64.0538 74.9318 63.723 74.8742 63.525 74.6674C62.2183 73.2619 61.11 71.79 60.2003 70.2517C60.1263 70.1198 60.0314 70.0536 59.9153 70.0536C59.7749 70.0536 59.5313 70.1776 59.1841 70.4259C58.7948 70.6403 58.601 70.9467 58.601 71.3428C58.601 71.6245 58.6087 72.0293 58.6259 72.5592C58.6425 73.0878 58.7742 73.4348 59.0222 73.6003C59.196 73.7167 59.5977 73.8071 60.2252 73.8735C60.6139 73.9233 60.8086 74.0679 60.8086 74.3075C60.8086 74.4979 60.7775 74.6159 60.7154 74.6606C60.6537 74.7061 60.4899 74.7165 60.2252 74.6917C59.3985 74.6176 58.0015 74.6589 56.0337 74.8157C55.5376 74.857 55.2687 74.7948 55.2275 74.6295C55.2111 74.5721 55.2024 74.4891 55.2024 74.3815C55.2024 74.1258 55.4549 73.9309 55.9597 73.7994C56.4143 73.6829 56.6415 73.1498 56.6415 72.199V61.3592C56.6415 60.6814 56.5756 60.2102 56.4426 59.9458C56.2609 59.6065 55.8801 59.3418 55.3015 59.1516C55.0292 59.0612 54.8924 58.9329 54.8924 58.7674C54.8924 58.527 55.0871 58.3411 55.4753 58.2094C56.1003 58.0004 56.6962 57.7127 57.2487 57.3534C57.7037 57.0562 57.9851 56.9071 58.0919 56.9071C58.4315 56.9071 58.601 57.1215 58.601 57.5523C58.601 57.4938 58.5968 57.9037 58.588 58.7798C58.5791 59.5901 58.5751 60.4005 58.5761 61.2109L58.601 68.9744C58.601 69.1897 58.6587 69.2965 58.7742 69.2965C58.8982 69.2965 59.0886 69.1897 59.3452 68.9744C60.0314 68.4368 60.8747 67.7342 61.8748 66.866C62.0737 66.6594 62.1726 66.4939 62.1726 66.3699C62.1726 66.147 61.8378 65.9891 61.1685 65.8989C60.8792 65.8651 60.7422 65.7043 60.7583 65.4147C60.7834 65.1254 60.9283 65.0014 61.1925 65.0427C61.7886 65.1256 62.6568 65.1712 63.797 65.1797C64.5912 65.1873 65.3809 65.1918 66.1665 65.1918C66.4222 65.2003 66.5507 65.3528 66.5507 65.6509C66.5507 65.9317 66.3482 66.0849 65.9433 66.11C65.306 66.134 64.7065 66.2786 64.1451 66.5439C63.3595 66.8988 62.5198 67.5231 61.6267 68.4164C61.5612 68.4662 61.5276 68.5281 61.5276 68.6024C61.5276 68.7179 61.668 68.9953 61.9497 69.4335C62.9831 71.0045 63.9589 72.1905 64.8762 72.993C65.4636 73.4971 66.0131 73.7492 66.5256 73.7492C66.9064 73.7492 67.1421 73.776 67.2325 73.8301C67.324 73.8839 67.3697 74.0266 67.3697 74.2577V74.2577Z" fill="white"/>
</g>
<defs>
<clipPath id="clip0_1344_41">
<rect width="54.46" height="70" fill="white" transform="translate(13 5)"/>
</clipPath>
</defs>
</svg>
