<svg width="80" height="80" viewBox="0 0 80 80" fill="none" xmlns="http://www.w3.org/2000/svg">
<g clip-path="url(#clip0_1347_90)">
<path d="M73.6873 20.9709C73.7124 21.0637 73.7253 21.1593 73.7255 21.2554V36.1893C73.7255 36.381 73.6748 36.5692 73.5785 36.7351C73.4823 36.901 73.3438 37.0385 73.1772 37.1339L60.6166 44.3504V58.6541C60.6166 59.0433 60.4093 59.4027 60.071 59.5987L33.8518 74.6605C33.7918 74.6945 33.7263 74.7163 33.6609 74.7394C33.6363 74.7476 33.6131 74.7626 33.5872 74.7694C33.4039 74.8175 33.2113 74.8175 33.028 74.7694C32.998 74.7612 32.9707 74.7449 32.9421 74.734C32.8821 74.7122 32.8193 74.6932 32.762 74.6605L6.54831 59.5987C6.38178 59.5032 6.24341 59.3656 6.14715 59.1998C6.05089 59.0339 6.00013 58.8457 6 58.6541V13.8524C6 13.7544 6.01364 13.6591 6.03819 13.5666C6.04637 13.5353 6.06547 13.5067 6.07638 13.4754C6.09684 13.4182 6.11594 13.3597 6.14594 13.3066C6.1664 13.2712 6.19641 13.2426 6.22096 13.21C6.25233 13.1664 6.28097 13.1215 6.3178 13.0834C6.34917 13.0521 6.39009 13.029 6.42555 13.0017C6.46511 12.9691 6.50057 12.9337 6.54558 12.9078H6.54694L19.6545 5.37691C19.8205 5.2816 20.0086 5.23145 20.2001 5.23145C20.3916 5.23145 20.5797 5.2816 20.7456 5.37691L33.8532 12.9078H33.8559C33.8996 12.935 33.9364 12.9691 33.9759 13.0004C34.0114 13.0276 34.051 13.0521 34.0823 13.082C34.1205 13.1215 34.1478 13.1664 34.1805 13.21C34.2037 13.2426 34.2351 13.2712 34.2542 13.3066C34.2856 13.3611 34.3033 13.4182 34.3251 13.4754C34.336 13.5067 34.3551 13.5353 34.3633 13.5679C34.3884 13.6607 34.4013 13.7563 34.4015 13.8524V41.8351L45.324 35.5591V21.254C45.324 21.1588 45.3376 21.0621 45.3622 20.9709C45.3717 20.9383 45.3895 20.9097 45.4004 20.8784C45.4222 20.8212 45.4413 20.7627 45.4713 20.7096C45.4918 20.6742 45.5218 20.6456 45.545 20.613C45.5777 20.5694 45.605 20.5245 45.6432 20.4864C45.6745 20.4551 45.7141 20.4319 45.7495 20.4047C45.7905 20.372 45.8259 20.3367 45.8696 20.3108H45.8709L58.9798 12.7799C59.1458 12.6844 59.3339 12.6342 59.5254 12.6342C59.7169 12.6342 59.9051 12.6844 60.071 12.7799L73.1786 20.3108C73.2249 20.338 73.2604 20.372 73.3013 20.4033C73.3354 20.4306 73.375 20.4551 73.4063 20.485C73.4445 20.5245 73.4718 20.5694 73.5045 20.613C73.5291 20.6456 73.5591 20.6742 73.5782 20.7096C73.6096 20.7627 73.6273 20.8212 73.6491 20.8784C73.6614 20.9097 73.6791 20.9383 73.6873 20.9709V20.9709ZM71.5404 35.5591V23.1405L66.9535 25.7756L60.6166 29.4165V41.8351L71.5418 35.5591H71.5404ZM58.4329 58.0239V45.5971L52.1997 49.1496L34.4001 59.287V71.8308L58.4329 58.0239ZM8.18505 15.7375V58.0239L32.2151 71.8294V59.2883L19.6613 52.1984L19.6572 52.1957L19.6518 52.193C19.6095 52.1685 19.574 52.1331 19.5345 52.1031C19.5004 52.0759 19.4608 52.0541 19.4308 52.0242L19.4281 52.0201C19.3926 51.9861 19.3681 51.9439 19.3381 51.9058C19.3108 51.869 19.278 51.8377 19.2562 51.7996L19.2549 51.7955C19.2303 51.7547 19.2153 51.7057 19.1976 51.6594C19.1798 51.6186 19.1566 51.5805 19.1457 51.5369V51.5356C19.1321 51.4838 19.1294 51.4294 19.1239 51.3763C19.1185 51.3355 19.1075 51.2947 19.1075 51.2538V22.0135L12.772 18.3712L8.18505 15.7389V15.7375ZM20.2014 7.57915L9.2803 13.8524L20.1987 20.1257L31.1185 13.8511L20.1987 7.57915H20.2014ZM25.8809 46.7296L32.2165 43.09V15.7375L27.6295 18.3726L21.2926 22.0135V49.366L25.8809 46.7296ZM59.5254 14.9821L48.6057 21.2554L59.5254 27.5287L70.4438 21.254L59.5254 14.9821ZM58.4329 29.4165L52.096 25.7756L47.509 23.1405V35.5591L53.8446 39.1986L58.4329 41.8351V29.4165ZM33.3062 57.4019L49.3231 48.2771L57.3295 43.7175L46.4179 37.4483L33.8546 44.6661L22.4042 51.2443L33.3062 57.4019Z" fill="#FF2D20"/>
</g>
<defs>
<clipPath id="clip0_1347_90">
<rect width="67.8462" height="70" fill="white" transform="translate(6 5)"/>
</clipPath>
</defs>
</svg>
