<svg width="80" height="80" viewBox="0 0 80 80" fill="none" xmlns="http://www.w3.org/2000/svg">
<rect x="5" y="5" width="70" height="70" rx="35" fill="#CC0000"/>
<g clip-path="url(#clip0_1344_11)">
<path d="M59.9816 45.3722V47.8752H64.5346C65.4675 47.8752 67.0688 47.1976 67.1245 45.303V44.335C67.1245 42.717 65.7878 41.7628 64.5346 41.7628H62.2651V40.6012H66.7625V38.0843H62.4461C61.3322 38.0843 59.8423 38.997 59.8423 40.698V41.5692C59.8423 43.2702 61.3182 44.1414 62.4461 44.1414C65.5789 44.1552 61.6942 44.1414 64.5903 44.1414V45.3584L59.9816 45.3722ZM35.587 44.7637C35.587 44.7637 38.0237 44.5563 38.0237 41.4309C38.0237 38.3055 35.0718 38.0151 35.0718 38.0151H29.7529V47.8752H32.4263V45.4966L34.7377 47.8752H38.692L35.587 44.7637V44.7637ZM34.5566 42.7447H32.4263V40.4905H34.5706C34.5706 40.4905 35.1693 40.7118 35.1693 41.6107C35.1693 42.5096 34.5566 42.7447 34.5566 42.7447V42.7447ZM44.6236 38.0843H41.9084C39.973 38.0843 39.3186 39.8267 39.3186 40.6565V47.8752H42.0337V46.1466H44.5818V47.8752H47.2134V40.6565C47.2134 38.5545 45.2919 38.0843 44.6236 38.0843V38.0843ZM44.5818 43.3531H42.0198V40.9607C42.0198 40.9607 42.0198 40.4214 42.8692 40.4214H43.8021C44.554 40.4214 44.5679 40.9607 44.5679 40.9607V43.3531H44.5818V43.3531ZM48.4526 38.0843H51.2792V47.8752H48.4526V38.0843ZM55.2475 45.3445V38.0843H52.4348V47.8752H59.0487V45.3445H55.2475Z" fill="white"/>
<path d="M12.9751 47.8752H23.9749C23.9749 47.8752 21.8724 38.347 28.8343 34.4887C30.352 33.7557 35.1836 31.0176 43.0923 36.8258C43.3429 36.6183 43.5796 36.4524 43.5796 36.4524C43.5796 36.4524 36.3392 29.2751 28.2774 30.0772C24.2255 30.4367 19.2408 34.1014 16.3168 38.9416C13.3928 43.7818 12.9751 47.8752 12.9751 47.8752Z" fill="white"/>
<path d="M12.9751 47.8752H23.9749C23.9749 47.8752 21.8724 38.347 28.8343 34.4887C30.352 33.7557 35.1836 31.0176 43.0923 36.8258C43.3429 36.6183 43.5796 36.4524 43.5796 36.4524C43.5796 36.4524 36.3392 29.2751 28.2774 30.0772C24.2255 30.4367 19.2408 34.1014 16.3168 38.9416C13.3928 43.7818 12.9751 47.8752 12.9751 47.8752Z" fill="white"/>
<path d="M12.9751 47.875H23.9749C23.9749 47.875 21.8724 38.3468 28.8343 34.4885C30.352 33.7556 35.1836 31.0174 43.0923 36.8256C43.3429 36.6182 43.5796 36.4522 43.5796 36.4522C43.5796 36.4522 36.3392 29.275 28.2774 30.0771C24.2116 30.4366 19.2269 34.1013 16.3029 38.9415C13.3789 43.7816 12.9751 47.875 12.9751 47.875ZM35.8937 30.8515L35.9494 29.9249C35.824 29.8558 35.476 29.6898 34.5988 29.4409L34.5431 30.3536C35.0025 30.5058 35.4481 30.6717 35.8937 30.8515Z" fill="white"/>
<path d="M34.5705 33.7832L34.5148 34.6545C34.9743 34.6683 35.4338 34.7236 35.8933 34.8204L35.949 33.963C35.4756 33.8662 35.0161 33.8109 34.5705 33.7832ZM29.4187 29.4686H29.5579L29.2795 28.625C28.8478 28.625 28.4023 28.6527 27.9428 28.708L28.2073 29.5239C28.6111 29.4824 29.0149 29.4686 29.4187 29.4686V29.4686ZM30.087 34.5577L30.4073 35.5119C30.8111 35.3182 31.2149 35.1523 31.6187 35.0278L31.3123 34.1151C30.8389 34.2534 30.4351 34.4055 30.087 34.5577ZM23.7656 30.9206L23.1391 29.9664C22.791 30.1462 22.4289 30.3398 22.053 30.5611L22.6935 31.5291C23.0555 31.3078 23.4036 31.1004 23.7656 30.9206ZM26.62 37.1437L27.2884 38.1394C27.5251 37.7936 27.8035 37.4756 28.1099 37.1575L27.4833 36.2171C27.163 36.5075 26.8706 36.8256 26.62 37.1437ZM24.6011 41.5966L25.7289 42.4817C25.7846 41.9423 25.882 41.403 26.0213 40.8637L25.0188 40.0754C24.8378 40.5871 24.7124 41.0988 24.6011 41.5966V41.5966ZM18.5024 35.0278L17.5138 34.1704C17.1518 34.5162 16.8037 34.8619 16.4835 35.2076L17.5556 36.1203C17.848 35.7469 18.1683 35.3736 18.5024 35.0278ZM14.2974 41.2094L12.6962 40.6286C12.4316 41.2232 12.1392 41.9147 12 42.2881L13.6012 42.8689C13.7822 42.3987 14.0746 41.7211 14.2974 41.2094ZM24.3922 45.1092C24.42 45.8421 24.4897 46.4368 24.5593 46.8517L26.2301 47.4463C26.1048 46.907 25.9795 46.2985 25.896 45.6485L24.3922 45.1092Z" fill="white"/>
</g>
<defs>
<clipPath id="clip0_1344_11">
<rect width="55.125" height="19.25" fill="white" transform="translate(12 28.625)"/>
</clipPath>
</defs>
</svg>
