<svg width="80" height="80" viewBox="0 0 80 80" fill="none" xmlns="http://www.w3.org/2000/svg">
<g clip-path="url(#clip0_1344_23)">
<path d="M68.6383 8.65021C67.654 11.0014 66.4055 13.2342 64.9018 15.2847C58.322 8.70489 49.3909 5.00488 40.0863 5.00488C20.8389 5.00488 5 20.8621 5 40.1367C5 49.7513 8.93695 58.9557 15.8995 65.5902L17.1936 66.7385C23.5182 72.0698 31.5288 75.0043 39.7946 75.0043C58.0942 75.0043 73.4774 60.6599 74.7806 42.3786C75.7375 33.4293 73.1129 22.1106 68.6383 8.65021ZM20.8845 65.7907C20.3195 66.4925 19.4537 66.9026 18.5515 66.9026C16.902 66.9026 15.5532 65.5447 15.5532 63.8952C15.5532 62.2457 16.9111 60.8878 18.5515 60.8878C19.235 60.8878 19.9094 61.1247 20.4379 61.5622C21.7229 62.6011 21.9234 64.5058 20.8845 65.7907ZM68.4924 55.274C59.8348 66.8205 41.3439 62.9292 29.4875 63.4851C29.4875 63.4851 27.3823 63.6127 25.268 63.959C25.268 63.959 26.0609 63.6218 27.0907 63.2299C35.4111 60.3319 39.3481 59.7668 44.406 57.1695C53.9294 52.3212 63.3434 41.7133 65.3028 30.6771C61.6757 41.2941 50.685 50.4166 40.6695 54.1257C33.8072 56.6592 21.4131 59.1198 21.4131 59.1198L20.9118 58.8555C12.4729 54.7454 12.2177 36.455 27.5554 30.5495C34.272 27.9613 40.6968 29.383 47.951 27.6515C55.6974 25.8106 64.6557 19.9963 68.3011 12.414C72.3838 24.5438 77.2959 43.536 68.4924 55.274V55.274Z" fill="#77BC1F"/>
</g>
<defs>
<clipPath id="clip0_1344_23">
<rect width="69.972" height="70" fill="white" transform="translate(5 5)"/>
</clipPath>
</defs>
</svg>
