<svg width="80" height="80" viewBox="0 0 80 80" fill="none" xmlns="http://www.w3.org/2000/svg">
<g clip-path="url(#clip0_1344_57)">
<path d="M40.86 74.9451C60.1126 74.9451 75.72 59.3377 75.72 40.0851C75.72 20.8324 60.1126 5.2251 40.86 5.2251C21.6074 5.2251 6 20.8324 6 40.0851C6 59.3377 21.6074 74.9451 40.86 74.9451Z" fill="#1A171B"/>
<path d="M56.0314 18.1065C52.4947 18.2298 49.408 20.179 47.1102 22.8752C44.566 25.8315 42.8734 29.3379 41.6538 32.9171C39.4723 31.1291 37.7893 28.8145 34.2894 27.8052C31.5842 27.0285 28.7428 27.3493 26.1299 29.296C24.8921 30.2206 24.0394 31.6183 23.6339 32.932C22.584 36.3464 24.7377 39.385 25.716 40.476L27.8547 42.768C28.2956 43.2174 29.3575 44.3898 28.8384 46.0707C28.2774 47.8982 26.0741 49.0815 23.8142 48.3843C22.8049 48.0765 21.3549 47.3246 21.6796 46.2657C21.8138 45.8327 22.1238 45.5086 22.2899 45.1341C22.4424 44.8125 22.5151 44.5712 22.5614 44.4296C22.9743 43.0815 22.4103 41.3276 20.9663 40.8823C19.6193 40.4694 18.241 40.7965 17.7066 42.5311C17.1007 44.5015 18.0435 48.0776 23.0944 49.6349C29.0122 51.4531 34.0181 48.231 34.7281 44.0284C35.1753 41.3962 33.9868 39.4408 31.8094 36.9257L30.0354 34.9637C28.9607 33.8902 28.5917 32.0603 29.7039 30.6539C30.6424 29.4676 31.9791 28.9613 34.1682 29.5566C37.3636 30.4243 38.7879 32.6415 41.1647 34.4297C40.1834 37.6485 39.5421 40.8793 38.9614 43.7765L38.6076 45.9365C36.9088 54.8478 35.6119 59.741 32.2416 62.5502C31.5627 63.0331 30.592 63.7559 29.129 63.8063C28.3621 63.83 28.1142 63.3025 28.1036 63.0726C28.0854 62.5342 28.5391 62.2874 28.8406 62.0451C29.291 61.7994 29.9722 61.392 29.9259 60.0866C29.8769 58.5441 28.599 57.2066 26.752 57.2679C25.3685 57.315 23.2597 58.6171 23.339 61.0003C23.4215 63.4621 25.716 65.3069 29.1753 65.1901C31.0245 65.1266 35.1538 64.3739 39.2234 59.5362C43.96 53.9908 45.2847 47.6334 46.2812 42.9804L47.3935 36.8375C48.0114 36.9115 48.6721 36.9608 49.3908 36.978C55.2901 37.1024 58.2409 34.0468 58.2847 31.8242C58.3139 30.479 57.4021 29.1555 56.1256 29.1854C55.2119 29.2113 54.064 29.8194 53.7884 31.0831C53.5193 32.3228 55.6656 33.4416 53.988 34.5283C52.7962 35.2995 50.6597 35.8431 47.6508 35.4014L48.198 32.3776C49.3146 26.6434 50.6918 19.5899 55.9164 19.4184C56.2972 19.399 57.6905 19.4355 57.7229 20.3568C57.7324 20.6646 57.6562 20.743 57.2959 21.4476C56.929 21.9969 56.7907 22.4645 56.8078 23.0019C56.8582 24.466 57.9716 25.4282 59.5817 25.3702C61.7375 25.3004 62.3576 23.2015 62.3222 22.1235C62.2351 19.5907 59.5656 17.9907 56.0311 18.1065H56.0314Z" fill="white"/>
</g>
<defs>
<clipPath id="clip0_1344_57">
<rect width="69.72" height="70" fill="white" transform="translate(6 5)"/>
</clipPath>
</defs>
</svg>
